<?xml version="1.0" encoding="utf-8"?>
<!-- Generator: Adobe Illustrator 27.5.0, SVG Export Plug-In . SVG Version: 6.00 Build 0)  -->
<svg version="1.1" xmlns="http://www.w3.org/2000/svg" xmlns:xlink="http://www.w3.org/1999/xlink" x="0px" y="0px"
	 viewBox="0 0 1119.973 1122" style="enable-background:new 0 0 1119.973 1122;" xml:space="preserve">
<g id="BG">
	<rect x="0" y="0" style="fill:#272525;" width="1119.973" height="1122"/>
</g>
<g id="OBJECT">
	<g>
		<g>
			<path style="fill:#FFFFFF;" d="M563.213,414.006c4.316,1.358,8.615,2.769,12.878,4.281c-3.197-11.4-7.942-21.916-14.883-31.093
				c-7.855-1.917-15.757-3.66-23.679-5.331C547.014,391.479,553.586,404.26,563.213,414.006z"/>
			<path style="fill:#FFFFFF;" d="M544.891,408.685c4.23,1.141,8.441,2.309,12.611,3.543c0.782,0.231,1.555,0.49,2.334,0.727
				c-9.039-10.13-15.609-22.773-25.474-31.753c-5.063-1.056-10.132-2.087-15.202-3.12
				C526.512,389.169,535.648,398.966,544.891,408.685z"/>
			<path style="fill:#FFFFFF;" d="M486.463,386.354c3.257,4.26,7.186,7.568,11.338,10.597c8.452,2.083,16.917,4.101,25.335,6.166
				c-10.064-9.164-20.945-17.707-25.936-29.606c-6.801-1.467-13.579-3.018-20.325-4.685
				C479.362,375.043,482.388,381.025,486.463,386.354z"/>
			<path style="fill:#FFFFFF;" d="M466.606,383.022c3.044,3.551,6.951,6.107,10.81,8.701c5.378,1.451,10.781,2.84,16.194,4.191
				c-3.469-2.773-6.708-5.851-9.453-9.652c-3.989-5.524-6.956-11.633-9.408-17.96c-6.713-1.689-13.386-3.519-20.007-5.543
				C457.478,370.137,461.518,377.087,466.606,383.022z"/>
			<path style="fill:#FFFFFF;" d="M447.95,376.842c3.782,3.47,7.8,6.648,11.84,9.801c4.01,1.232,8.043,2.414,12.095,3.548
				c-3.198-2.372-5.956-5.005-8.462-8.228c-4.642-5.97-8.334-12.72-10.833-19.87c-6.417-2.008-12.78-4.212-19.072-6.668
				C434.751,364.082,441.786,371.188,447.95,376.842z"/>
			<path style="fill:#FFFFFF;" d="M437.25,378.907c5.846,2.243,11.768,4.32,17.76,6.241c-3.434-2.743-6.807-5.558-9.991-8.606
				c-6.115-5.853-12.748-13.181-13.423-22.041c-0.002-0.03,0.01-0.053,0.01-0.082c-7.115-3.01-14.026-6.469-21.027-9.753
				C415.632,358.641,425.857,369.547,437.25,378.907z"/>
			<path style="fill:#FFFFFF;" d="M432.068,376.856c-10.424-9.179-19.444-19.868-23.764-33.258c-0.149-0.069-0.297-0.141-0.447-0.21
				c-0.44-0.202-0.707-0.519-0.891-0.867c-4.083-2.152-8.155-4.323-12.177-6.574c-0.991-0.633-1.985-1.262-2.963-1.913
				c-0.19-0.127-0.376-0.215-0.565-0.325c0.646,6.436,2.984,12.749,6.063,18.423c2.349,4.328,5.204,8.399,8.502,12.059
				c2.083,2.311,4.531,4.192,6.717,6.327c2.025,0.859,4.059,1.694,6.114,2.482c0.028-0.043,0.052-0.089,0.08-0.132
				c3.094,0.935,6.235,1.738,9.431,2.39C429.46,375.808,430.766,376.327,432.068,376.856z"/>
			<path style="fill:#FFFFFF;" d="M383.898,356.317c3.07,1.926,6.17,3.794,9.329,5.537c5.029,2.235,10.011,4.563,15.032,6.79
				c-2.273-2.076-4.616-4.111-6.465-6.46c-3.067-3.895-5.696-8.165-7.793-12.656c-2.461-5.272-4.159-10.938-4.575-16.682
				c-0.054-0.018-0.111-0.049-0.165-0.066c-3.06-1.791-6.091-3.631-9.071-5.553c-3.885-2.505-7.692-5.107-11.472-7.748
				C370.708,332.77,375.8,345.671,383.898,356.317z"/>
			<path style="fill:#FFFFFF;" d="M351.576,329.772c-1.942-5.271-4.072-10.432-5.604-15.849c-1.164-4.12-2.069-8.347-2.544-12.596
				c-5.6-3.945-56.78-59.033-79.427-83.745c-1.901,1.693-3.863,3.288-5.878,4.812c22.65,27.313,75.828,90.224,82.826,98.223
				c3.638,4.158,7.535,8.126,11.606,11.916C352.238,331.616,351.917,330.696,351.576,329.772z"/>
			<path style="fill:#FFFFFF;" d="M366.737,318.1c-5.001-3.53-9.945-7.14-14.883-10.778c-2.055-1.514-4.231-3.042-6.443-4.596
				c0.445,3.238,1.131,6.458,1.983,9.62c1.431,5.313,3.366,10.43,5.358,15.55c0.91,2.339,1.652,4.761,2.51,7.112
				c4.617,4.123,9.439,8.014,14.392,11.641c3.33,2.439,6.722,4.785,10.159,7.051C372.758,343.136,368.389,330.749,366.737,318.1z"/>
			<path style="fill:#FFFFFF;" d="M526.598,403.968c5.017,1.242,10.015,2.506,14.979,3.819c-9.028-9.542-17.844-19.24-24.892-30.21
				c-5.795-1.182-11.585-2.381-17.365-3.615C504.757,385.959,516.386,394.525,526.598,403.968z"/>
			<path style="fill:#FFFFFF;" d="M585.279,401.399c-0.148-2.631-0.445-5.276-0.947-7.942c-1.615-0.492-3.243-0.934-4.865-1.402
				C581.339,395.242,582.913,398.685,585.279,401.399z"/>
			<path style="fill:#FFFFFF;" d="M585.387,404.077c-3.754-3.44-5.6-8.523-8.473-12.759c-4.329-1.216-8.671-2.386-13.036-3.475
				c6.629,9.272,11.193,19.802,14.267,31.18c1.773,0.64,3.544,1.285,5.307,1.951C584.766,415.405,585.462,409.779,585.387,404.077z"
				/>
			<path style="fill:#FFFFFF;" d="M444.069,317.594c-8.186,4.612-15.904,10.107-22.939,16.402c0.205-0.104,0.411-0.207,0.612-0.306
				c4.909-2.408,10.44-3.148,15.858-2.95c7.701,0.281,15.155,2.287,22.46,4.746c6.486-3.389,13.289-6.078,20.269-8.011
				C470.189,320.413,456.408,315.725,444.069,317.594z"/>
			<path style="fill:#FFFFFF;" d="M472.227,305.884c-8.316,2.334-16.409,5.535-24.119,9.527
				c12.042-0.432,24.846,4.431,34.274,11.312c0.071,0.052,0.111,0.115,0.16,0.175c8.354-2.105,16.947-3.079,25.562-2.786
				C499.624,313.58,485.954,306.782,472.227,305.884z"/>
			<path style="fill:#FFFFFF;" d="M501.482,301.48c-8.216,0.205-16.391,1.276-24.389,3.173c13.087,2.066,25.595,9.134,33.362,19.571
				c4.311,0.264,8.62,0.882,12.905,1.816C520.675,315.422,511.924,305.873,501.482,301.48z"/>
			<path style="fill:#FFFFFF;" d="M563.997,339.281c0.367-5.836-2.062-11.626-4.958-16.557c-2.061-3.51-4.737-7.558-8.004-10.803
				c-0.331-0.158-0.652-0.337-0.985-0.491c-7.144-3.318-14.474-5.763-21.888-7.405c10.29,6.862,17.528,16.968,17.703,30.414
				c0.761,0.415,1.521,0.834,2.277,1.276c5.145,3.009,9.951,6.518,14.334,10.443C563.209,343.904,563.849,341.634,563.997,339.281z"
				/>
			<path style="fill:#FFFFFF;" d="M576.519,338.831c-1.211-5.544-3.855-10.648-6.916-15.454c-4.497-3.471-9.261-6.602-14.279-9.299
				c1.58,1.966,2.979,4.015,4.172,5.947c3.099,5.017,5.788,10.496,6.243,16.468c0.292,3.84-0.785,7.375-1.924,10.917
				c3.217,3.006,6.181,6.25,8.869,9.689C576.368,351.825,578.018,345.692,576.519,338.831z"/>
			<path style="fill:#FFFFFF;" d="M588.486,342.156c-4.418-5.634-9.384-10.839-14.832-15.488c2.395,4.34,4.286,8.923,4.989,13.803
				c0.988,6.856-1.016,12.922-4.815,18.122c3.126,4.194,5.811,8.683,8.035,13.393C588.698,363.179,591.636,352.714,588.486,342.156z
				"/>
			<path style="fill:#FFFFFF;" d="M589.427,401.877c5.54-3.974,10.693-8.826,13.623-15.09c1.519-3.246,2.244-6.738,3.474-10.048
				c-1.184-3.937-2.602-7.794-4.245-11.549c-0.644,2.955-1.561,5.844-2.932,8.593c-2.823,5.658-7.261,10.112-12.103,14.071
				c0.13,0.607,0.282,1.207,0.396,1.819c0.008,0.024,0.025,0.038,0.031,0.063c1.068,3.954,1.616,8.03,1.741,12.156
				C589.413,401.893,589.421,401.882,589.427,401.877z"/>
			<path style="fill:#FFFFFF;" d="M589.411,403.178c0.045,4.988-0.514,10.033-1.519,15.017
				c10.325-7.354,16.085-17.899,21.432-29.007c-0.527-3.17-1.166-6.337-2.006-9.498c-1.107,3.418-1.946,6.95-3.807,10.083
				c-3.258,5.488-7.79,9.797-12.941,13.491C590.156,403.562,589.709,403.447,589.411,403.178z"/>
			<path style="fill:#FFFFFF;" d="M611.187,405.523c-0.04-0.861-0.063-1.721-0.121-2.582c-0.111-0.047-0.222-0.094-0.334-0.141
				c-0.133-3.507-0.452-7.013-0.927-10.516c-5.386,10.939-11.453,21.202-22.073,28.218c-0.128,0.085-0.259,0.128-0.389,0.147
				c-0.128,0.551-0.231,1.107-0.37,1.655c0.108,0.041,0.216,0.08,0.324,0.122c-0.623,4.179-1.44,8.33-2.33,12.47
				C596.416,427.609,604.007,417.283,611.187,405.523z"/>
			<path style="fill:#FFFFFF;" d="M581.73,448.389c5.221-2.024,10.147-4.649,14.681-8.114c4.65-3.553,8.8-7.697,12.845-11.922
				c1.054-4.994,1.757-9.997,2.123-15.035c-0.001-1.533-0.024-3.067-0.062-4.601c-7.245,11.557-15.156,21.591-26.871,28.605
				C583.612,441.022,582.689,444.709,581.73,448.389z"/>
			<path style="fill:#FFFFFF;" d="M577.33,480.299c4.488-3.715,9.264-7.067,14.13-10.265c3.461-2.275,6.812-4.761,10.265-7.072
				c1.284-4.822,2.51-9.671,3.633-14.545c-7.542,7.581-17.406,11.989-27.764,15.179c-2.005,7.187-3.995,14.365-5.749,21.561
				C573.641,483.439,575.496,481.817,577.33,480.299z"/>
			<path style="fill:#FFFFFF;" d="M570.503,498.515c3.973-4.012,8.224-7.73,12.363-11.566c4.899-4.54,9.822-9.103,15.707-12.226
				c0.707-2.662,1.418-5.322,2.146-7.954c0.108-0.391,0.205-0.787,0.312-1.179c-2.817,1.941-5.586,3.963-8.427,5.831
				c-4.172,2.743-8.273,5.599-12.191,8.698c-3.12,2.467-6.388,5.223-9.346,8.28c-0.069,0.299-0.147,0.597-0.215,0.896
				c-0.853,3.732-1.637,7.495-2.372,11.276C569.177,499.855,569.861,499.163,570.503,498.515z"/>
			<path style="fill:#FFFFFF;" d="M574.505,513.496c5.759-6.857,11.88-13.408,19.084-18.678c1.359-5.966,2.823-11.886,4.356-17.742
				c-9.036,5.111-16.742,13.546-24.044,20.602c-1.754,1.695-3.889,3.722-6.006,5.966c-1.347,7.292-2.433,14.659-3.283,22.058
				C567.647,521.362,571.279,517.337,574.505,513.496z"/>
			<path style="fill:#FFFFFF;" d="M589.122,517.195c1.13-6.616,2.442-13.205,3.893-19.743c-6.774,5.253-12.561,11.687-18.054,18.293
				c-3.614,4.346-7.738,8.924-10.781,13.965c-0.427,4.208-0.799,8.422-1.044,12.642c1.701,0.526,3.404,1.048,5.107,1.57
				C572.074,533.992,580.03,523.895,589.122,517.195z"/>
			<path style="fill:#FFFFFF;" d="M588.704,519.751c-8.163,6.445-15.222,15.665-18.74,24.7c0.407,0.125,0.814,0.251,1.222,0.376
				c4.774,1.082,9.527,2.244,14.219,3.595C585.984,538.86,587.149,529.281,588.704,519.751z"/>
			<path style="fill:#FFFFFF;" d="M606.187,444.869c0.078-0.357,0.173-0.711,0.25-1.068c0.004-4.042,1.138-8.241,2.081-12.117
				c-4.058,4.157-8.281,8.161-13.039,11.502c-4.448,3.124-9.256,5.486-14.297,7.327c-0.978,3.688-1.996,7.367-3.02,11.044
				C588.831,458.173,598.885,453.38,606.187,444.869z"/>
			<path style="fill:#FFFFFF;" d="M598.16,372.128c1.434-3.105,2.29-6.381,2.837-9.72c-2.76-5.835-6.038-11.418-9.804-16.655
				c1.598,9.992-1.82,19.779-8.484,28.056c1.708,3.882,3.087,7.914,4.104,12.068C591.43,382.016,595.604,377.662,598.16,372.128z"/>
			<path style="fill:#FFFFFF;" d="M522.976,303.02c-5.782-0.986-11.601-1.509-17.41-1.573c9.69,5.264,17.442,14.713,19.731,25.022
				c6.344,1.541,12.62,3.857,18.742,7.009C543.485,319.381,534.664,309.346,522.976,303.02z"/>
			<path style="fill:#FFFFFF;" d="M441.648,347.596c5.083-4.119,10.509-7.786,16.194-10.927c-4.456-1.44-8.969-2.678-13.601-3.431
				c-4.88-0.794-9.908-1.088-14.795-0.18c-4.353,0.809-14.008,4.023-14.538,9.49c4.126,1.973,8.236,3.976,12.39,5.88
				c1.197,0.452,2.393,0.872,3.583,1.275C434.185,348.092,437.906,347.548,441.648,347.596z"/>
			<path style="fill:#FFFFFF;" d="M400.189,369.143c-1.764-0.803-3.527-1.608-5.294-2.408c-1.194,2.173-2.297,4.378-3.358,6.595
				C394.267,371.51,397.195,369.954,400.189,369.143z"/>
			<path style="fill:#FFFFFF;" d="M392.395,385.616c4.062-3.095,8.421-5.759,12.766-8.431c1.983-1.22,3.995-2.361,6.149-3.135
				c-2.793-1.181-5.571-2.397-8.337-3.647c-4.439,0.449-8.903,3.032-12.868,6.018c-2.414,5.41-4.422,10.939-6.063,16.54
				C386.641,390.335,389.426,387.879,392.395,385.616z"/>
			<path style="fill:#FFFFFF;" d="M390.73,402.513c4.474-4.821,9.465-9.001,14.549-13.152c2.332-1.904,4.692-3.752,7.187-5.37
				c1.307-2.623,2.685-5.209,4.198-7.716c-0.238-0.093-0.472-0.196-0.71-0.289c-0.41,0.293-1.084,0.306-1.419-0.261
				c-0.09-0.152-0.203-0.289-0.297-0.438c-0.092-0.037-0.182-0.078-0.274-0.116c-3.904,0.828-7.212,3.172-10.578,5.253
				c-3.848,2.379-7.627,4.8-11.177,7.613c-3.328,2.637-6.395,5.527-9.203,8.639c-1.81,6.92-3.023,13.943-3.696,20.993
				C382.598,412.281,386.382,407.198,390.73,402.513z"/>
			<path style="fill:#FFFFFF;" d="M378.911,423.799c-0.09,1.823-0.169,3.647-0.184,5.471c0.526,5.794,2.845,11.687,2.976,17.304
				c0.12,0.568,0.172,1.133,0.201,1.697c3.396-16.91,9.758-33.295,22.93-43.482c0.482-1.985,1.015-3.968,1.622-5.947
				c1.209-3.944,2.683-7.787,4.38-11.523c-1.693,1.237-3.339,2.551-4.971,3.89c-4.828,3.962-9.559,7.937-13.816,12.523
				c-4.543,4.893-8.422,10.249-11.78,15.919C379.589,421.016,379.161,422.401,378.911,423.799z"/>
			<path style="fill:#FFFFFF;" d="M388.588,478.133c0.217,4.748,2.935,8.211,5.605,11.891c0.487,0.671,0.9,1.353,1.258,2.048
				c0.564,0.421,1.083,0.893,1.535,1.441c0.12-14.659,2.725-29.394,7.156-43.309c-1.263-6.148-2.004-12.429-2.143-18.785
				c-9.368,13.803-13.19,29.932-13.481,46.438C388.549,477.941,388.583,478.024,388.588,478.133z"/>
			<path style="fill:#FFFFFF;" d="M398.945,499.297c0.323,3.494,3.454,6.089,5.716,8.503c1.315,1.404,2.299,2.742,2.999,4.245
				c-1.665-13.225-1.119-26.955,4.026-38.784c-2.858-6.262-5.141-12.791-6.762-19.51c-4.34,14.604-6.618,30.056-6.059,45.281
				C398.898,499.115,398.936,499.193,398.945,499.297z"/>
			<path style="fill:#FFFFFF;" d="M416.942,522.434c0.769-3.264,1.431-6.557,1.916-9.897c1.057-7.283,0.615-15.206,2.421-22.42
				c-3.22-4.66-6.093-9.553-8.557-14.648c-4.807,12.22-4.881,26.284-2.828,39.637C411.483,518.203,413.585,521.209,416.942,522.434z
				"/>
			<path style="fill:#FFFFFF;" d="M418.874,523.844c0.814,3.488,4.245,6.104,7.489,7.389c1.304-2.617,2.56-5.257,3.673-7.964
				c2.352-5.719,3.233-11.528,4.502-17.375c-4.35-4.299-8.337-8.94-11.903-13.875c-1.649,7.616-1.173,16.06-2.448,23.604
				c-0.439,2.6-1.017,5.162-1.641,7.712C418.695,523.456,418.82,523.613,418.874,523.844z"/>
			<path style="fill:#FFFFFF;" d="M427.973,532.014c1.424,4.449,7.881,8.515,12.313,9.286c0.064,0.011,0.11,0.044,0.166,0.064
				c1.338-3.159,2.937-6.208,4.254-9.437c2.382-5.843,1.935-10.953,0.864-16.526c-3.248-2.451-6.357-5.066-9.296-7.846
				c-0.205,1.404-0.408,2.808-0.698,4.196c-0.867,4.154-2.235,8.204-3.847,12.123c-1.137,2.764-2.426,5.458-3.761,8.13
				L427.973,532.014z"/>
			<path style="fill:#FFFFFF;" d="M463.875,552.959c0.211-0.027,0.384,0.023,0.538,0.101c2.423-3.625,5.31-6.978,8.258-10.017
				c3.119-3.215,6.332-6.134,9.826-8.531c-1.495-0.302-2.973-0.974-4.399-1.689c-1.594-0.8-3.287-1.681-5.04-2.442
				c-0.773-0.283-1.535-0.584-2.298-0.884c-2.057-0.706-4.165-1.13-6.271-0.975c-0.674,7.596-4.581,14.794-8.884,21.193
				C457.641,551.969,460.839,553.348,463.875,552.959z"/>
			<path style="fill:#FFFFFF;" d="M505.055,539.089c-4.156-0.195-8.36-2.421-12.575-3.469c-0.623-0.121-1.247-0.241-1.869-0.368
				c-2.021-0.298-4.044-0.232-6.064,0.602c-0.323,0.133-0.617,0.114-0.88,0.026c-3.171,2.161-6.097,4.783-8.972,7.657
				c-3.163,3.163-6.37,6.773-8.974,10.712c1.242,1.001,2.703,1.822,4.298,2.475c1.386,0.448,2.779,0.879,4.179,1.291
				c2.958,0.642,6.013,0.827,8.637,0.554c0.299-0.031,0.543,0.061,0.724,0.218c4.497-5.11,9.415-9.882,14.657-14.222
				c1.444-1.196,3.932-3.322,6.828-5.399C505.044,539.14,505.053,539.115,505.055,539.089z"/>
			<path style="fill:#FFFFFF;" d="M525.964,541.802c-6.2-1.365-12.895-3.997-19.131-1.312c-0.288,0.124-0.551,0.116-0.793,0.057
				c-4.192,3.009-7.923,6.427-9.49,7.806c-3.847,3.386-7.511,7.005-10.927,10.833c1.483,1.554,4.487,2.263,6.423,2.846
				c0.661,0.199,1.582,0.519,2.569,0.791c0.852,0.156,1.702,0.317,2.557,0.466c0.793,0.051,1.521-0.026,2.082-0.335
				c5.086-4.703,11.153-8.531,16.934-12.017c4.529-2.731,9.265-5.986,14.213-8.703C528.999,542.309,527.523,542.145,525.964,541.802
				z"/>
			<path style="fill:#FFFFFF;" d="M544.426,542.679c-0.41-0.112-0.819-0.155-1.228-0.238c-1.043-0.141-2.088-0.269-3.132-0.402
				c-1.887-0.101-3.782-0.02-5.696,0.146c-5.701,2.75-11.089,6.593-16.246,9.674c-5.243,3.132-10.82,6.542-15.681,10.641
				c4.073,2.064,8.729,3.406,13.33,2.747c0.011-0.002,0.019,0.003,0.031,0.002c3.508-3.412,7.303-6.49,11.086-9.171
				c6.668-4.724,14.472-9.111,22.669-11.39C547.835,544.066,546.205,543.167,544.426,542.679z"/>
			<path style="fill:#FFFFFF;" d="M570.307,547.41c-3.484-0.791-6.978-1.546-10.478-2.275c-0.032-0.007-0.052-0.027-0.082-0.035
				c-0.336-0.066-0.674-0.119-1.01-0.184c-11.432,0.669-22.674,6.692-31.649,13.227c-2.878,2.095-5.751,4.423-8.488,6.946
				c2.341,0.737,4.715,1.423,7.115,1.92c2.247,0.239,4.492,0.493,6.739,0.745c1.522-0.006,3.05-0.137,4.584-0.452
				c0.056-0.012,0.1,0.002,0.153,0c6.833-4.802,14.647-8.283,22.716-10.813c6.615-2.074,14.414-4.713,22.037-5.502
				C578.064,549.796,574.187,548.601,570.307,547.41z"/>
			<path style="fill:#FFFFFF;" d="M600.576,560.228c-5.346-3.102-12.455-7.953-18.909-7.332c-0.13,0.012-0.246-0.006-0.354-0.036
				c-7.709,0.887-15.653,3.614-22.156,5.744c-6.134,2.009-12.089,4.602-17.535,7.938c2.163,2.222,5.873,2.755,8.765,3.287
				c0.174,0.032,0.347,0.053,0.521,0.084c1.23,0.183,2.454,0.362,3.677,0.519c2.153,0.235,4.314,0.323,6.502,0.201
				c15.265-6.255,32.627-7.448,48.917-4.195C606.854,564.378,603.838,562.12,600.576,560.228z"/>
			<path style="fill:#FFFFFF;" d="M637.486,584.721c-4.789-4.671-9.46-9.336-15.619-12.113c-2.372-1.07-4.688-1.983-6.908-3.188
				c-17.053-4.511-35.732-3.98-52.112,2.409c-0.055,0.292-0.261,0.526-0.621,0.599c0.185,0.038,0.369,0.075,0.553,0.118
				c0.107,0.025,0.213,0.058,0.32,0.083c0.002,0.029,0.005,0.059,0.007,0.088c7.031,0.528,13.777,2.859,20.186,6.103
				c0.071-0.005,0.137-0.021,0.219-0.007c19.195,3.284,38.224,6.294,57.1,11.18c1.306,0.338,2.629,0.723,3.944,1.08
				C642.128,589.244,639.891,587.066,637.486,584.721z"/>
			<path style="fill:#FFFFFF;" d="M694.659,636.372c-0.931-0.862-1.839-1.771-2.719-2.734c-4.552-4.98-8.804-9.425-13.649-13.466
				c-9.324-5.404-19.152-9.908-29.526-13.489c-6.505-2.245-12.931-4.711-19.562-6.575c-4.231-1.189-9.068-2.495-13.776-2.668
				c7.967,5.571,15.64,11.618,23.09,17.964c4.895,0.801,9.546,2.844,14.239,4.563c8.178,2.996,16.555,5.407,24.68,8.56
				c5.948,2.308,11.618,5.04,17.147,8.004C694.612,636.479,694.625,636.421,694.659,636.372z"/>
			<path style="fill:#FFFFFF;" d="M711.284,653.629c-5.153-5.275-8.659-10.929-15.79-13.995c-0.552-0.238-0.825-0.668-0.922-1.132
				c-5.235-2.834-10.604-5.447-16.218-7.685c-7.546-3.008-15.294-5.445-22.985-8.043c-4.62-1.56-9.307-3.787-14.136-5.026
				c7.275,6.311,14.341,12.893,21.274,19.577c0.786,0.189,1.566,0.389,2.334,0.576c4.4,1.071,8.742,2.372,13.058,3.745
				c8.404,2.674,16.536,5.942,24.757,9.105c2.923,1.125,6.075,2.258,9.249,3.458C711.699,654.015,711.486,653.836,711.284,653.629z"
				/>
			<path style="fill:#FFFFFF;" d="M722.435,664.644c-2.36-3.383-6.297-6.005-10.048-7.568c-0.566-0.236-0.841-0.674-0.933-1.145
				c-3.228-1.216-6.432-2.343-9.404-3.487c-7.166-2.758-14.252-5.644-21.547-8.063c-4.001-1.326-8.032-2.561-12.088-3.708
				c-1.106-0.313-2.31-0.701-3.548-1.064c4.359,4.234,8.656,8.497,12.931,12.757c2.239,0.559,4.435,1.358,6.582,2.151
				c5.598,2.066,11.331,3.677,16.983,5.597c7.851,2.668,15.988,5.454,23.759,8.872C724.13,667.599,723.367,665.98,722.435,664.644z"
				/>
			<path style="fill:#FFFFFF;" d="M729.501,673.327c-0.171-0.159-0.277-0.326-0.352-0.495c-8.618-4.199-17.916-7.403-26.807-10.481
				c-5.4-1.87-10.98-3.284-16.322-5.294c-1.821-0.686-3.704-1.444-5.622-2.097c1.488,1.486,2.986,2.976,4.467,4.457
				c4.581,4.581,9.109,9.216,13.598,13.886c9.81,1.89,19.501,7.017,27.492,12.687c3.581-1.546,6.956-3.514,10.049-5.925
				C735.258,676.709,731.869,675.523,729.501,673.327z"/>
			<path style="fill:#FFFFFF;" d="M700.732,675.672c4.423,4.63,8.811,9.295,13.158,13.997c3.44-0.674,6.809-1.628,10.051-2.871
				C717.069,682.045,709.003,677.76,700.732,675.672z"/>
			<path style="fill:#FFFFFF;" d="M668.835,612.857c-7.248-6.533-13.14-16.089-22.286-18.934c-0.451-0.14-0.724-0.414-0.88-0.733
				c-2.367-0.654-4.725-1.271-7.056-1.864c-16.722-4.249-33.567-7.044-50.53-9.921c6.342,2.942,12.49,6.303,18.356,10.02
				c2.199,1.393,4.367,2.837,6.521,4.305c4.315-0.201,8.741,0.661,12.868,1.646c7.452,1.778,14.636,4.466,21.846,7.018
				c7.378,2.611,14.476,5.565,21.33,8.918C668.909,613.169,668.866,613.013,668.835,612.857z"/>
			<path style="fill:#FFFFFF;" d="M453.451,548.31c0.345-0.167,0.649-0.096,0.883,0.076c4.185-6.264,7.942-13.287,8.38-20.706
				c-0.024-0.042-0.057-0.068-0.077-0.118c-0.344-0.871-0.879-1.686-1.54-2.45c-3.44-1.77-6.778-3.695-9.979-5.8
				c-1.079-0.325-2.12-0.57-3.075-0.728c0.512,3.333,0.624,6.658-0.339,10.197c-1.294,4.759-3.853,8.999-5.739,13.507
				C444.096,545.189,449.939,550.008,453.451,548.31z"/>
			<path style="fill:#FFFFFF;" d="M382.571,456.301c-1.665,5.537,1.954,10.853,4.101,15.701c0.099,0.224,0.181,0.449,0.269,0.674
				c0.995-15.872,5.405-31.231,15.009-44.327c0.053-6.898,0.793-13.866,2.284-20.819c-13.385,11.372-19.01,29.836-21.817,47.939
				C382.584,455.686,382.671,455.967,382.571,456.301z"/>
			<path style="fill:#FFFFFF;" d="M563.851,581.5c1.203-1.792,2.423-3.581,3.587-5.41c-1.363-0.259-2.733-0.477-4.121-0.601
				C563.467,577.497,563.647,579.501,563.851,581.5z"/>
			<path style="fill:#FFFFFF;" d="M579.489,580.037c-3.306-1.503-6.691-2.757-10.173-3.572c-1.655,2.648-3.454,5.192-5.15,7.789
				c0.552,4.813,1.286,9.593,2.172,14.338C569.937,592.047,574.451,585.93,579.489,580.037z"/>
			<path style="fill:#FFFFFF;" d="M587.391,592.021c-0.476-2.846-0.898-5.7-1.226-8.568c-1.637-0.945-3.306-1.812-4.992-2.633
				c-5.578,6.497-10.54,13.261-14.307,20.593c2.114,10.472,5.092,20.737,9.048,30.68C577.572,618.241,581.6,604.581,587.391,592.021
				z"/>
			<path style="fill:#FFFFFF;" d="M592.74,613.87c-2.007-6.173-3.593-12.43-4.778-18.755c-5.575,12.733-9.339,26.518-10.624,40.426
				c4.081,9.619,9.121,18.912,15.215,27.779C589.143,647.299,590.37,630.043,592.74,613.87z"/>
			<path style="fill:#FFFFFF;" d="M609.153,670.198c-1.487-6.384-2.525-12.9-2.943-19.444c-0.163-2.546-0.221-5.068,0.135-7.511
				c-0.413-0.667-0.845-1.327-1.246-1.999c-4.572-7.674-8.206-15.565-11.077-23.612c-2.207,16.443-2.993,33.782,1.342,49.644
				c0.63,0.858,1.253,1.719,1.904,2.568c5.565,7.252,11.853,14.031,18.729,20.146C612.968,683.709,610.743,677.024,609.153,670.198z
				"/>
			<path style="fill:#FFFFFF;" d="M622.562,664.356c-5.491-5.79-10.436-12.105-14.731-18.729c-0.204,3.358,0.236,6.846,0.602,10.007
				c0.614,5.301,1.573,10.579,2.852,15.759c1.869,7.569,4.551,14.93,8.331,21.694c6.06,5.028,12.549,9.524,19.39,13.366
				C629.835,694.396,624.265,678.995,622.562,664.356z"/>
			<path style="fill:#FFFFFF;" d="M671.217,710.977c-9.349-8.266-18.428-17.599-25.636-27.99
				c-7.608-4.54-14.616-10.137-20.923-16.463c2.188,15.002,8.413,30.556,18.456,42.133c9.313,4.77,19.232,8.321,29.612,10.291
				c3.408,0.647,6.863,1.07,10.334,1.371C678.899,717.455,674.948,714.277,671.217,710.977z"/>
			<path style="fill:#FFFFFF;" d="M670.831,693.2c-7.577-1.704-14.772-4.471-21.522-8.092c6.685,8.97,14.725,17.135,22.941,24.399
				c4.497,3.976,9.317,7.802,14.454,11.091c8.297,0.431,16.675-0.112,24.884-1.588C696.496,713.591,682.685,704.022,670.831,693.2z"
				/>
			<path style="fill:#FFFFFF;" d="M692.091,695.309c-6.027,0.079-12.031-0.381-17.851-1.438
				c11.934,10.523,25.816,19.665,40.866,24.448c3.361-0.721,6.689-1.59,9.961-2.631c0.093-0.047,0.186-0.095,0.279-0.142
				C713.354,710.44,703.106,702.273,692.091,695.309z"/>
			<path style="fill:#FFFFFF;" d="M705.41,694.209c-3.354,0.519-6.735,0.861-10.119,1.02c10.523,6.854,20.493,14.557,32.191,19.232
				c4.6-2.317,9.166-4.695,13.699-7.134C728.787,706.972,716.17,700.575,705.41,694.209z"/>
			<path style="fill:#FFFFFF;" d="M788.836,647.615c1.232-5.235,2.057-10.622,2.447-16.128
				c-7.799,12.464-15.872,24.713-30.706,27.594c-2.017,3.372-4.385,6.647-7.16,9.798c10.163,2.644,22.034-4.901,28.92-11.647
				C785.319,654.311,787.32,651.052,788.836,647.615z"/>
			<path style="fill:#FFFFFF;" d="M779.343,607.258c2.413-5.344,4.502-11.01,4.821-16.909c0.186-3.443-0.057-6.891-0.199-10.339
				c-1.04-3.104-2.191-6.176-3.401-9.227c-0.001,2.058-0.085,4.113-0.522,6.142c-1.014,4.71-2.715,9.242-4.919,13.522
				c-2.203,4.277-4.895,8.272-7.955,11.962c1.406,6.213,2.297,12.418,2.526,18.536C773.657,617.217,776.889,612.69,779.343,607.258z
				"/>
			<path style="fill:#FFFFFF;" d="M769.775,563.804c-0.943,7.935-3.256,16.035-7.136,23.19c1.559,4.389,2.93,8.802,4.016,13.219
				c2.923-3.665,5.476-7.623,7.515-11.854c2.339-4.853,4.231-10.222,4.774-15.607c0.196-1.941,0.12-3.873,0.055-5.799
				c-2.94-6.981-6.297-13.802-9.902-20.471C770.67,551.973,770.438,558.225,769.775,563.804z"/>
			<path style="fill:#FFFFFF;" d="M748.608,515.599c1.294,6.635,1.355,13.429,1.215,20.167c-0.11,5.283-0.167,13.049-1.86,19.873
				c5.337,9.315,10.136,19.121,13.856,29.104c3.929-7.756,6.038-16.571,6.508-25.001c0.387-6.943-0.495-13.045-3.693-19.215
				c-1.7-3.279-3.657-6.511-4.802-9.996c-3.734-5.991-7.686-11.86-11.821-17.61C748.225,513.81,748.433,514.701,748.608,515.599z"/>
			<path style="fill:#FFFFFF;" d="M670.047,437.523c5.669,6.679,9.803,14.264,13.031,22.385c3.173,7.983,5.298,16.264,6.803,24.71
				c0.007,0.041,0.016,0.083,0.023,0.124c7.547,6.746,14.775,13.868,21.638,21.372c-0.339-2.712-0.819-5.279-0.995-7.061
				c-0.831-8.426-2.884-16.719-6.163-24.526c-3.166-7.538-7.255-14.974-12.211-21.755c-8.494-7.144-17.344-13.854-26.498-20.09
				C667.168,434.261,668.638,435.863,670.047,437.523z"/>
			<path style="fill:#FFFFFF;" d="M650.117,428.269c5.039,7.748,8.396,16.649,11.516,25.31c1.37,3.802,2.628,7.643,3.834,11.5
				c7.715,5.632,15.21,11.565,22.394,17.875c-0.265-1.151-0.523-2.27-0.746-3.331c-1.675-7.965-4.129-15.774-7.463-23.204
				c-3.58-7.977-8.25-14.938-14.2-21.339c-2.222-2.391-4.514-4.709-6.789-7.041c-5.341-3.438-10.78-6.712-16.307-9.817
				C645.14,421.419,647.803,424.71,650.117,428.269z"/>
			<path style="fill:#FFFFFF;" d="M642.96,450.014c6.821,4.176,13.5,8.577,20.001,13.228c-1.286-4.064-2.631-8.109-4.137-12.109
				c-3.275-8.698-6.817-17.445-12.351-24.979c-2.711-3.69-5.738-7.125-8.816-10.516c-3.229-1.741-6.492-3.413-9.776-5.036
				C635.012,422.692,640.593,436.132,642.96,450.014z"/>
			<path style="fill:#FFFFFF;" d="M627.005,440.825c4.69,2.539,9.32,5.184,13.885,7.934c-2.63-14.013-8.516-27.55-15.94-39.586
				c-3.364-1.617-6.752-3.182-10.171-4.669c-0.121-0.053-0.243-0.102-0.365-0.153c0.012,0.628,0.027,1.255,0.03,1.885
				c0.185,3.685,0.151,7.354,0.019,11.016C621.669,422.588,623.486,432.63,627.005,440.825z"/>
			<path style="fill:#FFFFFF;" d="M614.394,419.526c-0.241,4.74-0.684,9.468-1.253,14.196c3.852,1.862,7.656,3.815,11.432,5.82
				C621.859,432.439,619.895,424.362,614.394,419.526z"/>
			<path style="fill:#FFFFFF;" d="M729.175,505.711c-1.159-8.221-3.568-15.926-7.843-23.075c-1.384-2.314-2.87-4.559-4.372-6.792
				c-6.184-6.379-12.639-12.498-19.315-18.365c4.105,6.501,7.464,13.433,9.968,20.39c3.086,8.571,4.296,17.256,5.131,26.273
				c0.105,1.132,0.291,2.435,0.453,3.807c2.792,3.103,5.543,6.248,8.209,9.478c2.564,3.108,5.18,6.435,7.8,9.91
				C730.097,520.143,730.19,512.911,729.175,505.711z"/>
			<path style="fill:#FFFFFF;" d="M725.517,486.549c3.773,7.66,5.477,16.306,6.042,24.783c0.405,6.07,0.002,12.077-0.801,18.067
				c5.353,7.234,10.688,15.146,15.618,23.496c0.103-0.524,0.2-1.041,0.289-1.539c1.037-5.822,1.339-11.769,1.394-17.674
				c0.062-6.707-0.162-13.4-1.685-19.962c-0.38-1.637-0.848-3.276-1.362-4.905c-6.705-9.025-13.911-17.707-21.528-26.028
				C724.197,484.021,724.886,485.267,725.517,486.549z"/>
			<path style="fill:#FFFFFF;" d="M789.09,616.146c0.613-1.912,1.072-3.871,1.716-5.743c-0.877-8.103-2.534-16.074-4.798-23.89
				c0.044,2.218-0.003,4.431-0.288,6.63c-0.782,6.023-3.22,11.996-5.957,17.378c-2.621,5.153-5.997,9.411-10.037,12.903
				c0.05,6.022-0.528,11.953-1.901,17.711c5.065-3.365,9.667-7.423,13.571-12.118C784.572,625.197,787.564,620.903,789.09,616.146z"
				/>
			<path style="fill:#FFFFFF;" d="M791.453,627.856c0.161-4.282,0.07-8.531-0.225-12.748c-0.508,1.833-1.04,3.659-1.888,5.343
				c-2.158,4.291-5.178,8.271-8.401,11.81c-4.045,4.442-8.691,8.282-13.765,11.445c-1.284,4.561-3.057,9.011-5.411,13.304
				C776.129,653.486,783.752,640.27,791.453,627.856z"/>
			<path style="fill:#FFFFFF;" d="M786.843,654.847c-1.852,2.352-3.985,4.494-6.336,6.427c-7.489,6.155-18.596,12.066-28.392,9.057
				c-2.081,2.237-4.365,4.412-6.869,6.516c11.36,2.603,24.963-0.233,35.318-6.861C783.09,665.159,785.174,660.092,786.843,654.847z"
				/>
			<path style="fill:#FFFFFF;" d="M743.467,678.253c-1.436,1.116-2.904,2.19-4.415,3.202c-0.052-0.058-0.104-0.114-0.156-0.172
				c-3.219,2.718-6.792,4.896-10.581,6.644c10.313,3.646,21.174,8.182,32.129,7.853c7.425-6.609,13.567-14.265,18.397-22.679
				C768.045,679.058,754.602,681.266,743.467,678.253z"/>
			<path style="fill:#FFFFFF;" d="M725.862,688.979c-3.566,1.435-7.29,2.526-11.099,3.286c-2.189,0.581-4.408,1.046-6.637,1.459
				c11.055,6.424,24.094,12.673,36.439,11.766c4.634-2.545,9.227-5.168,13.755-7.914
				C747.224,697.292,736.247,692.542,725.862,688.979z"/>
			<path style="fill:#FFFFFF;" d="M784.987,737.174c-1.565-1.876-2.871-4.036-4.21-6.108c-0.593-0.918-1.252-1.897-1.943-2.887
				c-1.67-2.059-3.351-4.108-5.035-6.156c-1.29-1.294-2.665-2.438-4.126-3.319c-0.271-0.103-0.539-0.215-0.813-0.313
				c-5.643-2.012-11.441-3.329-17.299-4.533c-4.381-0.9-9.121-1.993-13.673-1.708c-0.853,0.452-1.697,0.921-2.554,1.366
				c2.431,2.785,4.825,5.601,7.231,8.407c12.156,4.406,24.85,7.277,36.617,12.761c2.085,0.972,4.109,2.042,6.11,3.149
				C785.186,737.618,785.083,737.398,784.987,737.174z"/>
			<path style="fill:#FFFFFF;" d="M803.104,760.529c-1.458-1.958-2.478-4.172-3.651-6.308c-1.659-2.156-3.331-4.302-5.004-6.447
				c-2.367-2.252-4.969-4.277-6.997-6.69c-3.842-2.268-7.824-4.315-11.961-6.086c-9.919-4.247-20.4-6.884-30.589-10.357
				c4.24,4.976,8.443,9.982,12.595,15.03c13.895,3.294,27.004,10.93,39.414,17.572c2.133,1.142,4.278,2.336,6.418,3.559
				C803.257,760.709,803.176,760.626,803.104,760.529z"/>
			<path style="fill:#FFFFFF;" d="M805.574,782.894c-7.881-5.276-16.62-12.05-25.995-15.23c4.335,5.699,8.63,11.43,12.86,17.21
				c5.437,7.429,12.802,5.782,17.065,0.729C808.204,784.684,806.895,783.778,805.574,782.894z"/>
			<path style="fill:#FFFFFF;" d="M805.273,780.537c1.783,1.174,3.546,2.385,5.295,3.619c2.874-4.409,3.569-10.596-0.364-15.841
				c-0.61-0.814-1.234-1.617-1.846-2.43c-3.724-2.323-7.523-4.486-11.288-6.529c-11.784-6.397-24.445-13.786-37.67-17.364
				c6.246,7.652,12.347,15.416,18.347,23.257C787.745,767.999,796.87,775.005,805.273,780.537z"/>
			<path style="fill:#FFFFFF;" d="M765.65,715.301c1.081,0.394,1.324-0.24,1.337-1.239c0.001-0.073-0.008-0.154-0.01-0.229
				c-2.642-3.17-5.282-6.341-7.961-9.48c-2.327-0.372-4.669-0.422-7.001,0.04c-0.02,0.004-0.035-0.003-0.055,0
				c-3.559,2.046-7.151,4.031-10.759,5.985c3.341,0.212,6.696,0.918,9.891,1.563c4.712,0.952,9.391,1.983,13.989,3.36
				C765.249,715.243,765.436,715.223,765.65,715.301z"/>
		</g>
		<path style="fill:#FFFFFF;" d="M811.846,805.493c-3.664,1.653-7.851,0.904-10.358-2.36c-2.417-3.147-1.951-6.661-1.825-10.33
			c0.065-1.894-2.897-2.705-4.063-1.387c-4.392,4.965-3.18,12.948,1.296,17.502c5.021,5.109,12.97,5.88,19.185,2.676
			C820.848,809.136,816.105,803.572,811.846,805.493z"/>
		<path style="fill:#FFFFFF;" d="M813.402,814.542c3.914-3.071,8.051-5.847,11.862-9.037c3.392-2.839,5.904-6.155,7.974-9.799
			c-0.109-0.695-0.205-1.392-0.43-2.083c-0.026-0.079-0.066-0.147-0.093-0.225c0.454-0.638,0.764-1.398,0.815-2.301
			c0.229-4.081-0.748-8.453-2.214-12.261c-0.494-1.283-1.754-2.556-3.198-2.7c-3.227-0.322-6.524-0.888-9.768-0.828
			c-1.668,0.03-3.195,2.228-1.539,3.451c1.748,1.29,3.676,2.344,5.602,3.381c-0.015,0.506,0.005,1.016,0.012,1.524
			c-6.472-2.178-14.273-1.036-19.149,3.822c-7.879,7.851-4.609,22.529,5.928,26.285
			C810.547,814.247,811.981,814.499,813.402,814.542z"/>
		<path style="fill:#FFFFFF;" d="M829.906,806.922c-3.655,3.441-7.893,6.233-11.931,9.244c6.345,23.49,12.691,46.989,19.625,70.314
			c6.257,21.047,10.97,44.241,20.25,64.159c3.748,8.043,9.772,14.352,17.375,17.192c0.406,0.2,0.832,0.354,1.279,0.445
			c3.919,1.233,8.225,1.568,12.844,0.751c12.367-2.188,20.969-12.386,20.865-24.209c0.976-0.92,1.551-2.154,1.346-3.672
			c-3.591-26.63-19.311-54.179-31.874-77.672c-11.919-22.289-25.821-45.771-43.654-64.273
			C834.341,802,832.362,804.61,829.906,806.922z"/>
		<path style="fill:#FFFFFF;" d="M334.462,286.587c-3.059,3.923-6.405,7.614-9.336,11.628c-2.609,3.573-4.248,7.395-5.379,11.431
			c0.273,0.649,0.534,1.301,0.919,1.918c0.044,0.07,0.1,0.127,0.145,0.196c-0.287,0.729-0.405,1.541-0.237,2.43
			c0.76,4.016,2.762,8.024,5.101,11.367c0.788,1.126,2.318,2.058,3.754,1.85c3.209-0.465,6.546-0.71,9.68-1.548
			c1.611-0.431,2.564-2.932,0.662-3.72c-2.008-0.831-4.132-1.389-6.251-1.932c-0.108-0.495-0.249-0.984-0.379-1.476
			c6.806,0.556,14.103-2.432,17.665-8.321c5.757-9.517-0.952-22.976-12.085-24.084C337.303,286.186,335.851,286.287,334.462,286.587
			z"/>
		<path style="fill:#FFFFFF;" d="M320.279,297.957c2.719-4.22,6.159-7.951,9.354-11.845c-11.816-21.271-23.634-42.549-35.982-63.518
			c-11.142-18.921-21.301-40.297-35.106-57.393c-5.575-6.904-12.941-11.577-21.004-12.501c-0.442-0.096-0.893-0.144-1.349-0.124
			c-4.101-0.253-8.361,0.459-12.647,2.364c-11.476,5.102-17.368,17.072-14.42,28.522c-0.726,1.128-0.987,2.464-0.423,3.888
			c9.898,24.981,31.79,47.933,49.642,67.709c16.937,18.762,36.084,38.205,57.848,51.867
			C317.16,303.803,318.452,300.793,320.279,297.957z"/>
	</g>
</g>
</svg>
