<svg xmlns="http://www.w3.org/2000/svg" xmlns:xlink="http://www.w3.org/1999/xlink" xmlns:serif="http://www.serif.com/" viewBox="0 0 64 80" version="1.1" xml:space="preserve" style="" x="0px" y="0px" fill-rule="evenodd" clip-rule="evenodd" stroke-linejoin="round" stroke-miterlimit="2"><g><path d="M25.43,49.993l-2.43,0c0,0 0,-4.993 0,-4.993c-0,-0.552 -0.448,-1 -1,-1c-0.552,0 -1,0.448 -1,1l0,5.993c0,0.552 0.448,1 1,1l2.429,0c-0.49,0.833 -1.068,1.605 -1.794,2.269c-0.602,0.55 -0.76,1.343 -0.543,2.166c0.248,0.941 1.034,1.883 1.743,2.224c1.316,0.634 3.244,0.061 4.137,-1.013c1.367,-1.645 2.243,-3.53 3.028,-5.405l0,8.766c0,0.3 0.134,0.583 0.366,0.773c0.232,0.19 0.536,0.266 0.83,0.208l4.804,-0.961c-0,-0 4.804,0.961 4.804,0.961c0.294,0.058 0.598,-0.018 0.83,-0.208c0.232,-0.19 0.366,-0.473 0.366,-0.773l0,-18.222c1.279,-0.493 2,-1.408 2,-2.778c-0,-0.735 -0.285,-1.446 -0.807,-1.998c0.516,-0.536 0.807,-1.293 0.807,-2.002c-0,-0.735 -0.285,-1.446 -0.807,-1.998c0.516,-0.536 0.807,-1.293 0.807,-2.002c-0,-0.735 -0.285,-1.446 -0.807,-1.998c0.516,-0.536 0.807,-1.293 0.807,-2.002c-0,-0.735 -0.285,-1.446 -0.807,-1.998c0.516,-0.536 0.807,-1.293 0.807,-2.002c-0,-1.275 -0.807,-2.336 -2,-2.785l0,-8.215c0,-0.552 -0.448,-1 -1,-1l-9,0l0,-9c0,-0.552 -0.448,-1 -1,-1l-7,0c-0.552,0 -1,0.448 -1,1l0,6c-0,0.552 0.448,1 1,1c0.552,0 1,-0.448 1,-1l0,-5c0,0 5,0 5,0l-0,10.561c-1.515,-0.958 -3.337,-1.692 -5.165,-2.462c-0.962,-0.406 -1.927,-0.821 -2.835,-1.303l0,-7.796c-0,-0.552 -0.448,-1 -1,-1c-0.552,0 -1,0.448 -1,1l0,6.518c-0.445,-0.351 -0.857,-0.736 -1.225,-1.168c-0.906,-1.06 -2.862,-1.633 -4.199,-1.007c-1.368,0.641 -2.139,2.566 -1.069,3.989c1.65,2.194 3.969,3.689 6.493,4.984l0,4.899c-1.308,0.493 -2,1.387 -2,2.785c0,0.656 0.302,1.489 0.803,2.006c-0.52,0.551 -0.803,1.26 -0.803,1.994c0,0.656 0.302,1.489 0.803,2.006c-0.52,0.551 -0.803,1.26 -0.803,1.994c0,0.656 0.302,1.489 0.803,2.006c-0.52,0.551 -0.803,1.26 -0.803,1.994c0,0.656 0.302,1.489 0.803,2.006c-0.52,0.551 -0.803,1.26 -0.803,1.994c0,1.479 1.521,3 3,3c6.849,0 6.849,0 6.849,0c-1.095,1.401 -1.845,3.139 -2.573,4.94c-0.276,0.682 -0.549,1.374 -0.846,2.053Zm10.116,-6.993c0.019,0.162 0.026,0.327 0.019,0.494c-0.035,0.805 -0.368,1.606 -0.963,2.182c-0.642,0.621 -1.157,1.335 -1.602,2.11l-0,11.994l3,-0.6l0,-5.18c0,-0.552 0.448,-1 1,-1c0.552,0 1,0.448 1,1l0,5.18l3,0.6l0,-16.78l-5.454,0Zm-3.913,0c-1.679,1.322 -2.636,3.545 -3.503,5.689c-1.026,2.537 -2.082,5.153 -4.127,7.031c0,0.349 0.221,0.9 0.699,1.13c0.556,0.268 1.355,-0.036 1.732,-0.489c1.514,-1.822 2.345,-3.977 3.191,-6.038c0.939,-2.283 1.902,-4.456 3.587,-6.085c0.225,-0.217 0.341,-0.524 0.354,-0.828c0.006,-0.144 -0.014,-0.283 -0.062,-0.41l-1.871,0Zm10.367,-4l-17,0c-0.552,0 -1,-0.448 -1,-1c0,-0.552 0.448,-1 1,-1l17,0c0.508,0 1,-0.395 1,-1c-0,-0.605 -0.395,-1 -1,-1l-20,0c-0.522,0 -1,0.478 -1,1c-0,0.522 0.478,1 1,1c0.552,0 1,0.448 1,1c-0,0.552 -0.448,1 -1,1c-0.493,-0 -1,0.507 -1,1c-0,0.491 0.509,1 1,1l20,0c0.605,0 1,-0.395 1,-1c-0,-0.506 -0.494,-1 -1,-1Zm-0,-8c-1.925,0 -1.925,0 -3,0c-0.552,0 -1,-0.448 -1,-1c-0,-0.552 0.448,-1 1,-1l3,0c0.522,0 1,-0.478 1,-1c-0,-0.522 -0.478,-1 -1,-1l-20,0c-0.514,-0 -1,0.486 -1,1c-0,0.514 0.486,1 1,1c3.78,-0 8.819,0 14,0c0.552,0 1,0.448 1,1c-0,0.552 -0.448,1 -1,1c-5.181,0 -10.22,0 -14,0c-0.503,0 -1,0.497 -1,1c-0,0.503 0.497,1 1,1l20,0c0.517,0 1,-0.483 1,-1c-0,-0.517 -0.483,-1 -1,-1Zm-0,-8c0.523,0.004 1,0.477 1,1c-0,0.515 -0.485,1 -1,1l-20,-0c-0.509,-0 -1,-0.491 -1,-1c-0,-0.484 0.516,-0.993 1,-0.993l20,-0.007Zm-1,-2l0,-7c0,0 -8,0 -8,-0l-0,1.037c0.742,-0 1.45,0.464 1.975,0.988c0.656,0.656 1.025,1.547 1.025,2.475l-0,2.5l5,0Zm-7,0l-0,-2.5c0,-0.373 -0.155,-0.796 -0.51,-1.108c0.041,0.185 0.065,0.372 0.073,0.559c0.037,0.843 -0.27,1.633 -0.84,2.203c-0.39,0.39 -1.024,0.39 -1.414,-0c-0.39,-0.39 -0.39,-1.024 0,-1.414c0.18,-0.181 0.268,-0.435 0.256,-0.702c-0.013,-0.301 -0.134,-0.604 -0.363,-0.82c-1.552,-1.461 -3.855,-2.312 -6.144,-3.276c-2.55,-1.075 -5.081,-2.275 -6.804,-4.292c-0.397,-0.466 -1.243,-0.771 -1.83,-0.496c-0.34,0.16 -0.585,0.622 -0.319,0.976c1.503,1.999 3.655,3.313 5.963,4.485c2.472,1.256 5.124,2.343 7.46,3.795c0.32,0.199 0.472,0.473 0.472,0.849l0,1.741l4,0Zm-11,0l5,0l-0,-1.178c-1.581,-0.931 -5,-2.527 -5,-2.527l-0,3.705Z"/></g><text x="0" y="79" fill="#000000" font-size="5px" font-weight="bold" font-family="'Helvetica Neue', Helvetica, Arial-Unicode, Arial, Sans-serif">Created by Ngiconan</text><text x="0" y="84" fill="#000000" font-size="5px" font-weight="bold" font-family="'Helvetica Neue', Helvetica, Arial-Unicode, Arial, Sans-serif">from the Noun Project</text></svg>